<svg xmlns="http://www.w3.org/2000/svg" width="512" height="512"><svg xmlns="http://www.w3.org/2000/svg" xmlns:xlink="http://www.w3.org/1999/xlink" width="512" height="512"><svg xmlns="http://www.w3.org/2000/svg" xmlns:svg="http://www.w3.org/2000/svg" xml:space="preserve" id="svg1" width="512" height="512" viewBox="0 0 135.47 135.47"><g id="layer1" transform="translate(12.9 -316.75)"><rect id="rect5" width="135.47" height="135.47" x="-12.9" y="316.75" ry="16.93" style="fill:#26282c;fill-opacity:1;stroke-width:26.4583"/><g id="g4" transform="translate(125.2 -230.1)scale(1.14409)"><path id="path4" d="M-95.07 592a13 13 0 0 1-.8-1.5c-.37-.66-.4-.93-.15-1.16.21-.18 1.1-1.34 1.25-1.61.12-.24.12-.88 0-1.62-.11-.64-.14-.57.8-1.8.65-.85.69-.98.56-2l-.1-.88.47-.49c1.02-1.07 1.29-1.68 1.2-2.77-.06-.82-.06-.82.32-1.21 1.3-1.36 1.57-1.86 1.46-2.76s-.13-.86.83-1.85c1.1-1.13 1.17-1.27 1.15-2.24-.02-.92-.01-.94 1.05-1.96.99-.94 1.13-1.2 1.24-2.27.08-.76.08-.76 1.01-1.7 1.21-1.22 1.38-1.5 1.46-2.5.06-.77.06-.77.73-1.36 1.6-1.43 1.77-1.68 1.9-2.78.12-.89.28-1.14 1.05-1.63 1.34-.86 1.95-1.74 2.04-2.95.05-.6.08-.68.27-.8 1.75-1.12 2.48-1.97 2.64-3.07q.24-1.64 2.42-1.9c1.21-.12 1.25-.03.44.94-.71.85-1.9 2.4-2.65 3.43a122 122 0 0 1-2.54 3.48l-.47.67c-.21.3-.6.9-.88 1.34a43 43 0 0 1-1.4 2.17c0 .02-.2.3-.43.63-.23.32-.42.6-.42.63 0 .02-.13.22-.29.44-.15.23-.39.6-.52.83-.12.23-.47.79-.76 1.23-.5.77-1.65 2.77-1.65 2.87a25.32 25.32 0 0 0-1.5 2.63l-.73 1.36c-.58 1-3.01 6.05-3.27 6.77a135.41 135.41 0 0 0-2.53 6.3c-.5 1.47-1.46 4.5-1.66 5.26-.82 3.09-1.26 4.2-1.54 3.83m2.93-2.23c-.14-.18-.2-1-.1-1.43a80 80 0 0 1 3.41-9.83l.59-1.44c.31-.69.5-1.15.5-1.18l.43-.93a109.61 109.61 0 0 1 3.72-7.28 86 86 0 0 0 1.96-3.38c0-.02.45-.72 1-1.56a74 74 0 0 0 2.04-3.2l.8-1.18c.34-.5 1.13-1.65 1.77-2.54l1.43-2.02c.37-.54 1.62-2.2 2.28-3.06.3-.37.7-.92.92-1.23 1.64-2.39 1.56-2.32 2.52-2.32.87 0 .84-.08.37 1.1-.19.46-.4 1.02-.48 1.24-.13.39-.16.41-1.06.87-1.14.59-1.41.95-1.86 2.5-.34 1.2-.45 1.35-1.28 1.78-1.17.6-1.23.7-1.86 2.63l-.4 1.22-.79.48c-1.01.6-1.55 1.55-1.94 3.4q-.16.62-.84.94c-.44.2-.94.6-1.06.85-.15.32-.55 1.56-.55 1.7 0 .66-.47 1.5-1 1.75-.85.43-1.16 1.05-1.5 2.98-.16.94-.15.92-.85 1.4-.91.62-1.15 1.16-1.27 2.85-.06.86-.16 1.07-.6 1.28-.91.43-1.2.98-1.26 2.44-.08 1.59-.06 1.5-.43 1.75-1.06.72-1.28 1.24-1.32 3.14-.03.9-.03.9-.63 1.48-.73.68-.76.79-.69 2.56.06 1.32.06 1.31-.3 1.5-.15.07-.52.3-.83.5-.62.41-.68.43-.84.24m-4.71-1.36q-.1-.06-.11-.2c0-.08-.08-.21-.17-.3s-.17-.2-.17-.26c0-.2-1.21-1.87-1.68-2.32-.52-.5-.5-.68.2-1.64.81-1.12.81-1.12 1.05-.84.78.9 1.67 2.59 2.05 3.87.08.29-.08.65-.6 1.3-.35.44-.38.47-.57.39m7.67-.6c-.3-.75.06-2.22.54-2.23.03 0 .3-.15.61-.33.98-.6 2.73-1.36 3.13-1.36.24 0 .27.29.18 1.46-.1 1.34-.06 1.28-.93 1.43a7 7 0 0 0-2.3.83c-.93.5-1.1.52-1.23.2m8.35-.8a24 24 0 0 0-2.3-.37c-.76-.07-.73-.01-.71-1.26.02-1.78-.01-1.76 2.12-1.44 2.32.34 2.51.43 2.27 1.02-.07.18-.24.67-.37 1.09-.23.75-.4 1.07-.58 1.05-.05 0-.24-.05-.43-.09m-14.92-2.8c-.15-.26-.3-.56-.53-1.08-.21-.47-.83-1.46-1.22-1.95-.5-.63-.5-.79-.08-1.32q1.02-1.3 1.17-1.3c.44 0 2.24 3.73 2.08 4.3-.1.32-.29.63-.75 1.18-.43.52-.46.53-.67.17m-5.2-.49c-.69-.43-1.36-.78-1.87-.97-.68-.26-.68-.18-.03-2.07.29-.84.37-.92.79-.78.28.1 2.34 1.18 2.88 1.51.5.3.44.69-.27 1.65l-.58.79c-.2.28-.28.27-.91-.13m13.12-.23c-.02-.51 0-1.1.06-1.43.13-.84 4.7-2.8 4.64-1.98-.2 2.27-.24 2.46-.6 2.46-.58 0-2.17.52-3.26 1.06-.76.39-.82.38-.84-.11m8.1-.54a13 13 0 0 0-2.13-.41c-.4 0-.52-.17-.48-.66q.16-1.95.3-2.11c.32-.4 4.22.32 4.22.77 0 .2-.87 2.46-.97 2.52-.12.08-.14.08-.94-.1m-14.9-3.65c-.27-.6-.76-1.5-1.08-1.99-.74-1.1-.78-.94.71-2.76.34-.41.74.07 1.44 1.73.85 2.06.9 2.43.33 3.2l-.55.75c-.23.32-.33.22-.85-.93m-4.95.24-.8-.46-.83-.4c-.84-.36-.85-.4-.28-1.69l.35-.83q.16-.4.33-.45c.34-.08 2.92 1.21 3.46 1.74.23.23.08.55-.7 1.57-.77 1-.72.98-1.53.52m13.43-.03c-.04-.07.15-1.69.23-1.94.05-.14.4-.4 1.26-.89 1.2-.68 3.25-1.34 3.4-1.1.03.06.02.3-.02.54l-.2 1.2c-.12.95-.12.95-.77 1.02-.99.1-2.56.62-3.32 1.08-.27.16-.52.2-.58.09m7.82-.74c-.4-.12-1.04-.26-1.43-.33-.76-.14-.98-.26-.9-.47.03-.07.12-.6.2-1.15.21-1.43.2-1.42 1.01-1.35 1.15.1 3.17.57 3.46.81.15.13.11.24-.55 1.58-.64 1.3-.55 1.25-1.8.9m-14.2-2.6a6 6 0 0 1-.32-.79c-.3-.85-.87-1.98-1.31-2.56-.47-.62-.45-.69.62-1.93.89-1.03 1.16-.78 2.03 1.83.65 1.94.63 2.03-.42 3.15-.41.43-.48.46-.6.3m-5.1-.6c-.68-.4-1.52-.85-2.02-1.08-.66-.3-.67-.35-.4-1.06l.35-.93c.2-.51.39-.88.5-.98.31-.25 3.68 1.54 3.68 1.95 0 .2-.53 1-1.22 1.8-.45.55-.48.55-.9.3m13.41-.76c.2-1.66.21-1.69 1.53-2.34 1.7-.85 3.6-1.35 3.6-.96 0 .25-.52 2.43-.6 2.5-.03.04-.44.13-.9.19a8 8 0 0 0-2.61.75c-1.15.48-1.09.5-1.02-.14m8.38.02-.93-.28a9 9 0 0 0-1.11-.27c-.79-.1-.78-.09-.5-1.52.32-1.64.3-1.63 1.28-1.46 1.56.28 3.34.83 3.34 1.05 0 .04-.13.32-.29.62l-.64 1.25c-.4.76-.47.8-1.15.6m-14.89-2.81c-.01-.06-.21-.62-.44-1.24-.4-1.1-.65-1.6-1.25-2.49-.18-.27-.2-.22.72-1.3 1.15-1.32 1.16-1.33 1.58-.33.7 1.63 1.17 3.77.92 4.15-.52.79-1.44 1.52-1.53 1.2m-5.14-.72c-.15-.13-.75-.48-1.34-.79-1.25-.64-1.28-.7-.84-1.48.15-.27.36-.72.46-1 .37-1.02.94-.94 3.04.44 1.13.73 1.14.8.3 1.83l-.7.91c-.3.39-.53.41-.92.09m13.84-.33c-.03-.08 0-.36.05-.62l.19-.94c.1-.56.2-.67 1.17-1.12 1.05-.48 1.2-.55 1.53-.65 2.5-.77 2.5-.77 2.16.55-.47 1.76-.37 1.65-1.7 1.86-.83.13-2.03.5-3.03.92-.3.13-.32.13-.37 0m7.89-.46c-.56-.19-1.22-.36-1.48-.4-.8-.09-.8-.14-.44-1.57.4-1.55.39-1.53 1.17-1.46 1.01.09 3.44.79 3.53 1.01.02.07-.26.62-.63 1.23-.37.62-.67 1.15-.67 1.2 0 .37-.33.37-1.48-.01m-14.53-2.9a15 15 0 0 0-.62-2c-.3-.74-.29-.8.18-1.08.22-.13.66-.46.98-.72.79-.66.82-.63 1.11.93.26 1.37.22 1.72-.24 2.23-.96 1.06-1.26 1.2-1.4.64m9.03-.9a5 5 0 0 1 .18-1.04c.32-1.35.27-1.3 2.89-2.23 2.04-.72 2.85-.77 2.53-.16-.07.14-.24.66-.38 1.17-.3 1.06-.43 1.24-.86 1.24-.82 0-2.38.36-3.49.8-.81.33-.8.33-.87.22m7.87-.4a16 16 0 0 0-1.47-.45c-.57-.13-.6-.2-.33-1.05l.36-1.22c.25-.87.86-.93 2.84-.27 1.84.62 1.83.61 1.35 1.29-.19.26-.34.5-.34.52s-.23.4-.5.81c-.61.9-.52.88-1.91.38m-24.94-1.22c-2.03-.23-4.18-.99-5.36-1.9-1.1-.85-2.93-2.72-2.93-3a13.77 13.77 0 0 1-1.21-2.3c-.93-2.12-1.37-7-1.03-11.17.22-2.74.64-6.11.92-7.5l.35-1.73a99 99 0 0 1 3.42-12.49l.85-2.24a62 62 0 0 1 3.06-6.86c.23-.48 1.5-2.37 1.59-2.37a18.82 18.82 0 0 1 4.58-4.1l1.78-.89a21 21 0 0 1 5.09-1.5c.28-.16 4.7-.2 6.08-.04a17 17 0 0 1 6.73 2.22c5.1 2.94 9.67 4.07 13.55 3.37l1.35-.24c1.79-.3 3.63-1.01 6.45-2.46a31 31 0 0 0 2.68-1.42c.06-.04.33-.16.61-.26l1.23-.43c3.72-1.36 9.28-1.23 13.52.3l1.07.37c.1 0 1.99 1.05 2.43 1.34a18 18 0 0 1 4.71 4.72 42 42 0 0 1 3.42 6.98 93 93 0 0 1 5.67 21.42c.33 2.24.55 6.93.43 8.76-.16 2.33-.57 5-.85 5.53-.04.08-.16.38-.26.68-.97 2.85-4.01 5.8-6.86 6.67l-.68.2c-.74.26-2.83.45-3.72.34-3.08-.37-5.3-1.93-9.07-6.36a58 58 0 0 1-4.13-5.72 73 73 0 0 0-2.26-3.48c-.1-.13-.37-.55-.62-.95-1.25-2.05-2.07-2.7-3.94-3.13-.93-.21-26.66-.13-27.31.09a5.4 5.4 0 0 0-3.34 2.77c-.12.24-.6 1-1.29 2.01a29 29 0 0 0-1.38 2.12c0 .08-1.56 2.38-1.96 2.88-.18.23-.54.72-.8 1.1-2.62 3.83-6.08 7.2-8.25 8.05-.2.08-.42.17-.46.2-.4.3-2.72.54-3.86.42m2.52-3.08c1.39-.5 3.86-2.5 5.15-4.15.18-.24.48-.58.65-.76l.64-.74 1.36-1.78.77-1.06a90 90 0 0 0 3.4-5.15c0-.03.14-.25.33-.5.19-.26.34-.5.34-.55 0-.1.43-.72 1.17-1.68a8 8 0 0 1 5.9-3.15c1.51-.14 25.25-.12 26.37.03 3.1.41 4.64 1.58 6.93 5.23a100 100 0 0 0 2.78 4.22q6.19 9.24 10.1 10.13c1.5.34 3.56-.04 5.04-.9 1.54-.92 3.52-3.02 3.52-3.75q.01-.12.11-.22c.07-.05.17-.28.22-.5.06-.22.16-.55.23-.74.64-1.85.87-6.07.53-9.76-.12-1.4-.42-4.02-.46-4.15-.02-.06-.1-.52-.17-1.01-.86-5.84-3.13-13.6-5.91-20.24a25 25 0 0 0-2.35-4.64 14.77 14.77 0 0 0-3.67-3.77 15 15 0 0 0-6.51-2.5c-1.2-.21-4.84-.2-5.9 0l-1.13.23c-1.21.22-2.37.7-4.46 1.86-.98.54-3.1 1.6-3.21 1.6a21.04 21.04 0 0 1-12.86 1.65c-2.67-.55-6.7-2.04-7.55-2.79a25 25 0 0 0-4.78-2.16c-2.48-.7-6.52-.77-8.85-.16q-2.95.77-3.94 1.44l-.9.57a13.5 13.5 0 0 0-4.68 4.93l-.7 1.31c-.31.57-.84 1.74-1.1 2.41-.11.3-.3.74-.41.98s-.34.78-.5 1.23l-.77 2.07c-4.4 11.74-6.18 25.15-4.15 31.3a8.7 8.7 0 0 0 3.28 4.41c.68.5 2.28 1.15 3.37 1.36.45.09 2.41-.02 2.77-.15m8.02 1.7c-.46-1.24-.41-1.6.3-2.3.24-.23.57-.6.74-.83.53-.71.65-.58.68.7l.03 1.07-.72.74c-.7.7-.94.86-1.03.63m17.64-1.38c-.27-.11-.94-.33-1.48-.49-1.25-.36-1.24-.31-.3-2.63.33-.82 1.11-.8 3.45.11 1.23.48 1.23.41-.03 2.22-.8 1.15-.8 1.15-1.64.8m-8.43.04c-.1-.1-.04-.37.3-1.34.3-.9.41-1.02 1.18-1.3l1.3-.48c.75-.3 2.28-.67 2.68-.67.32 0 .38.26.16.68-.06.13-.23.59-.38 1.03-.36 1.09-.33 1.06-1.28 1.16-1.03.12-2.1.37-3.1.73q-.78.28-.86.2m-6.6-3c-.1-.3.05-.81.38-1.2.19-.22.47-.61.64-.87.73-1.1.88-1.1.84.03-.03.82-.07.89-.94 1.65-.61.54-.82.63-.91.4m18.22-1.09c-.66-.31-1.07-.47-1.74-.67-1.17-.36-1.14-.23-.4-1.98.57-1.36.86-1.44 2.95-.72 1.68.58 1.94.8 1.52 1.27-.15.17-.38.47-.5.66-.95 1.48-1.25 1.71-1.83 1.44m-8.65-.19c-.2-.07-.12-.47.23-1.38l.24-.6c.2-.53 3.14-1.57 4.82-1.72.66-.06.7 0 .41.72-.11.3-.3.8-.43 1.1-.12.32-.21.61-.21.66q0 .33-1.23.34c-.85 0-1.2.09-2.8.62-.78.26-.92.3-1.03.26m-6.75-2.86c-.16-.16-.15-.14-.05-.42a37 37 0 0 1 1.8-2.62c.17-.2.24.12.19.85-.08 1-1.51 2.61-1.94 2.19m18.16-1.29c-.4-.16-1.06-.4-1.48-.52-1.1-.33-1.09-.22-.21-2.08.6-1.29.71-1.32 2.62-.7 1.89.63 2.18.84 1.8 1.37a15 15 0 0 1-1.67 2.12c-.23.17-.22.17-1.06-.19m-8.51-.19c-.07-.1.7-1.94.91-2.18.3-.34 2.38-1.06 3.57-1.25 1.83-.27 1.95-.24 1.61.45-.12.25-.33.75-.47 1.1-.42 1.05-.35 1-1.4 1.07q-1.57.1-3.15.64c-.78.27-1 .3-1.07.17m-6.65-2.79c-.13-.25-.1-.4.17-.92q1.77-3.31 1.84-1.37c.03.9-.05 1.05-1 1.79-.92.7-.9.7-1 .5m18.52-1.1c-.4-.18-1.09-.45-1.52-.6-1.09-.38-1.06-.33-.67-1.21l.37-.79c.1-.09 4.58-.03 4.7.07.15.13-1.84 2.87-2.08 2.86-.03 0-.39-.15-.8-.33m-8.57-.43c-.03-.05.08-.43.25-.84s.3-.78.3-.83c0-.44.36-.51 2.75-.54 2.6-.03 2.46-.09 2.04.81-.31.66-.38.7-1.45.75-1.02.05-1.86.2-2.85.53-.71.22-.96.25-1.04.12m13.08-40.21c-.17-.11.32-1.07 1.14-2.24.55-.8.36-.78 2.12-.16 1.1.4 1.1.4-.03 1l-.94.54c-.3.2-1.93.94-2.06.94a1 1 0 0 1-.23-.08m26.7-.35-.27-.2c-2.22-1.25-2.55-1.51-2.32-1.81s.32-.28 1.13.3a12 12 0 0 0 1.05.69q.94.5.84.88c-.06.24-.27.3-.44.14m.63-2.13a14 14 0 0 1-2.35-1.7l-.37-.39.33-.4a9 9 0 0 1 1.62-1.64c.1 0 .96.53 1.46.92.3.23.77.46 1.05.51.47.1.45.22-.26 1.62-.75 1.5-.75 1.5-1.48 1.08m-5.02-.25c-.23-.1-.65-.24-.92-.34-.56-.2-.6-.26-.9-1.38-.38-1.42-.36-1.51.4-2.3.83-.9.85-.89 1.17.23.1.38.76 1.72 1.17 2.38.47.79.48.88.07 1.28-.36.36-.4.36-1 .13m-16.43-.58a18 18 0 0 1-3.06-.97c-.27-.18-.26-.2.3-1.06l.56-.9c.5-.85.58-.97.71-.92.69.27 1.96.68 2.5.82.9.21.87.12.52 1.58-.38 1.57-.42 1.6-1.53 1.45m2.2-.33c-.05-.09.41-1.85.56-2.12.05-.1.23-.16.66-.2.85-.08 2.5-.5 3.21-.8.9-.4.96-.24.53 1.37-.32 1.17-.24 1.13-2.8 1.45-.58.07-1.22.19-1.42.26q-.63.2-.73.04m9.34-.38c-.73-.13-.83-.42-.36-.98.15-.17 1.62-2.93 2.48-4.64l.78-1.52a54 54 0 0 0 1.56-3.44 84 84 0 0 0 2.55-6.06c.13-.35.26-.68.3-.73s.13-.26.2-.47c.06-.2.36-1.05.67-1.87.3-.83.57-1.62.6-1.76s.15-.44.26-.67.2-.46.2-.5c0-.43.35-.34.62.17 1.09 1.99 1.05 1.8.5 2.38-1.3 1.42-1.42 1.74-1.15 3.28.05.28.02.33-.83 1.24-1.06 1.14-1.16 1.47-.81 2.63.1.35.02.5-.73 1.29-1.15 1.2-1.27 1.52-1.03 2.67.07.35.07.35-.8 1.27-1.13 1.22-1.2 1.36-1.17 2.38l.03.8-.9.88c-1.1 1.08-1.17 1.22-1.17 2.26 0 1.36-.37 1.65-1.8 1.39m-3.42-.33c-.02-.07.04-.5.14-.96l.3-1.41c.15-.74.1-.66.88-1.08.87-.47 1.08-.98 1.4-3.3.06-.49.08-.5.66-.83.86-.5 1.1-.98 1.2-2.45.08-1.12.26-1.5.82-1.77.68-.32.82-.67.96-2.37.1-1.19.13-1.44.26-1.5 1.26-.74 1.37-.98 1.39-2.92q0-1.44.6-1.45c.05 0 .26-.13.48-.29.92-.65 1.42-.27 1.09.82l-.39 1.2-.5 1.36c-.46 1.3-.76 2.07-1.06 2.71-.11.23-.26.6-.33.8-.34.96-.57 1.55-.94 2.33q-1.04 2.21-2.73 5.68l-1.06 1.99c-.5.9-1.1 2.03-1.33 2.49-.24.46-.48.9-.53.95-.13.16-1.25.15-1.3 0m9.77-1.19c-.92-1.67-1.63-3.8-1.47-4.4a6 6 0 0 1 1.4-1.48c.05.01.22.39.38.83.38 1.11.77 1.9 1.25 2.53.52.69.5.77-.23 1.5-.09.09-.37.4-.62.7-.52.59-.55.6-.7.32m5.82-1.03-.47-.26-.56-.35a6.58 6.58 0 0 1-1.66-1.19c-.23-.24-.23-.7.01-.7.04 0 .17-.14.29-.31q1.11-1.68 1.81-1.1c.29.23 1.03.67 1.83 1.08.71.36.71.32-.07 1.91-.6 1.25-.63 1.26-1.18.92m-21.2-.9a12 12 0 0 1-2.9-.95c-.38-.15-.4-.26-.1-.7.11-.17.25-.41.3-.53s.27-.53.51-.92c.51-.83.42-.82 1.84-.32.5.17 1.08.35 1.31.4.75.16.75.14.38 1.7-.37 1.57-.26 1.47-1.35 1.33m2.06-.02c-.03-.06.01-.32.08-.57s.17-.7.23-1c.17-1.02.22-1.07.93-1.14 1.17-.12 2.58-.49 3.37-.89.59-.3.63-.17.34 1.16-.25 1.18-.22 1.15-1.73 1.74-1.62.63-3.12.96-3.22.7m15.3-2.1a14 14 0 0 1-1.58-4.02c-.06-.44-.06-.44.57-1.1.76-.82.88-.83 1.12-.15.3.84.75 1.73 1.26 2.51.57.87.57.93.16 1.44l-.72.9c-.4.51-.63.63-.8.42m5.45-1.23a10 10 0 0 1-1.18-.7c-.08 0-1-.73-1.26-1-.28-.3-.22-.52.3-1 .15-.15.46-.5.7-.79.48-.6.53-.61 1.33-.1.97.6 1.13.7 1.58.91.53.26.58.36.4.78l-.32.82c-.57 1.49-.67 1.55-1.55 1.08m-20.62-.84a93.46 93.46 0 0 0-2.03-.63c-1.38-.43-1.35-.27-.36-2.15.5-.96.64-1.08.99-.9.3.15 1.75.61 2.3.72.61.13.62.19.4 1.87l-.16 1.1-.46.01c-.26.01-.56 0-.68-.02m2.01 0c-.02-.04.06-.49.19-1s.27-1.08.3-1.27c.08-.33.08-.33 1.44-.56.74-.13 1.6-.33 1.88-.44 1.17-.47 1.2-.45 1.04.77-.14 1.08-.22 1.22-.82 1.46-.27.1-.54.23-.59.27-.39.3-3.33.96-3.44.77m14.84-2.37c-1.1-1.72-1.72-3.74-1.33-4.3.55-.78 1.25-1.31 1.25-.95 0 .2.78 1.7 1.22 2.34l.76 1.13c.19.28.08.47-.84 1.5-.7.77-.74.79-1.06.28m6.18-.7a10 10 0 0 1-1.31-.62c-2.14-1.37-2.22-1.47-1.8-2.08.74-1.1 1.52-1.7 1.84-1.42.24.21 1.99 1.26 2.2 1.31.34.1.31.44-.12 1.62l-.43 1.16c-.04.12-.07.12-.38.03m-21.16-1.07a3 3 0 0 0-.58-.12 1 1 0 0 1-.34-.08c-.08-.04-.49-.2-.9-.34-1.37-.48-1.3-.33-.77-1.5.8-1.8.64-1.7 1.85-1.26.45.16 1.1.35 1.45.43.84.18.83.17.68 1.65-.16 1.5-.22 1.56-1.4 1.22m2.16-.02c-.05-.1.25-2.06.38-2.36q.06-.19.4-.24 1.49-.23 2.56-.61c1.5-.54 1.36-.6 1.34.6 0 1.42 0 1.4-1.8 2.02-.29.09-.6.2-.68.24-.65.3-2.09.52-2.2.35m14.48-2.31c-.6-.81-1.44-2.7-1.53-3.47-.06-.5-.06-.51.71-1.42.49-.57.46-.58.95.46.46.98.8 1.5 1.44 2.25.52.6.52.6-.16 1.46l-.72.94c-.22.3-.32.27-.69-.22m-14.66-1.74c-2.67-.54-3.36-.85-3.1-1.37.05-.08.25-.58.45-1.11.42-1.09.53-1.2.94-1.04.47.2 1.92.6 2.33.66.58.08.72.23.66.7l-.1 1.24c-.06 1.13-.08 1.15-1.18.92m2.02-.08c-.06-.17.15-2.34.24-2.46.04-.05.35-.11.7-.14.59-.04 1.79-.4 2.98-.89.61-.25.63-.23.56 1l-.06 1.06-.85.44c-.9.47-.88.46-2.25.86-1.01.3-1.24.32-1.32.13" style="fill:#ff8200;fill-opacity:1"/><path id="path3" d="M-62.47 588.58c-.44-.05-.47-.1-.69-.92l-.27-1.04c-.09-.34-.13-.37-.74-.65-.79-.37-.6-.4-1.6.2-1.1.68-1.2.67-2-.05-1.34-1.21-1.33-1.15-.42-2.6l.46-.74-.23-.57c-.32-.76-.3-.74-1.44-1.07-1.33-.38-1.27-.3-1.27-1.74 0-1.46-.02-1.43 1.32-1.8 1.16-.3 1.1-.25 1.38-.99l.24-.6-.47-.73c-.84-1.34-.84-1.37.05-2.29 1.14-1.17 1.36-1.16 3.11.08.1.07.29.02.8-.2.76-.32.74-.3 1.01-1.54.26-1.13.39-1.2 1.98-1.12 1.2.07 1.4.3 1.67 1.87.07.38.25.63.46.64.07 0 .29.07.47.16.49.24.67.21 1.24-.17.28-.18.54-.33.58-.33q.07-.01.17-.13c.37-.44.85-.23 1.93.87.78.79.77.83-.17 2.29-.37.58-.35.94.11 1.7.15.25.16.25 1.4.55q.88.2 1 .58c.08.32.06 2.26-.04 2.44-.09.17-1.34.57-2.15.69q-.15.02-.3.45l-.26.68c-.1.23-.08.3.06.5 1.1 1.6 1.14 1.82.43 2.56-1.35 1.4-1.26 1.39-2.7.57l-.83-.48-.53.25c-.3.14-.58.27-.65.29s-.21.44-.36 1.05a5 5 0 0 1-.4 1.16c-.14.15-1.58.26-2.35.18m2.23-6.33a3.12 3.12 0 0 0 .38-5.48c-3.2-2-6.46 2.4-3.65 4.95a2.9 2.9 0 0 0 3.27.53m-9.13-44.93c-1.03-.54-1-2 .06-2.54.53-.26 3.53-.31 4.11-.06 1.01.44 1.1 1.93.16 2.55-.46.3-3.78.34-4.33.05m11.57.02c-1-.61-1-2.05-.01-2.58.47-.25 3.72-.29 4.16-.05 1.04.58 1.11 1.93.13 2.6-.4.26-3.85.29-4.28.03m-27.43-2.3c-2.33-2.33-2.29-2.19-.68-2.22l1.18-.03.05-1.7c.05-2.3.32-2.72 1.66-2.64 1.13.07 1.3.43 1.3 2.72 0 1.87-.15 1.68 1.4 1.7.8 0 1.14.04 1.14.1 0 .1-3.88 4.1-3.97 4.1-.03 0-.96-.92-2.08-2.03m45.4.13a2.7 2.7 0 0 1-1.75-1.73c-.77-2.75 2.55-4.69 4.46-2.6 1.83 2-.08 5.04-2.72 4.33m-52.2-6.99a28 28 0 0 1-1.97-2.13c0-.2 3.97-4.1 4.02-3.96.03.07.06.65.07 1.3l.02 1.2 1.78.03c2.3.06 2.76.34 2.64 1.62-.1 1.14-.4 1.3-2.64 1.35l-1.78.04-.02 1.23a8 8 0 0 1-.09 1.28c-.03.03-.95-.85-2.03-1.96m15.63.7-.03-1.25-1.73-.04c-1.83-.05-1.91-.06-2.3-.48a1.6 1.6 0 0 1-.14-1.87c.31-.52.5-.57 2.44-.62l1.73-.04.04-1.22c.03-.78.08-1.23.14-1.25a49 49 0 0 1 3.93 3.99c0 .12-3.86 4.03-3.98 4.03-.05 0-.1-.56-.1-1.25m29.78-.26c-1.38-.47-2.14-2.3-1.5-3.6 1.28-2.6 5.05-1.75 5.04 1.13a2.63 2.63 0 0 1-3.54 2.47m13.2 0c-1.3-.44-2.07-2.22-1.5-3.52 1.22-2.74 5.3-1.77 5.08 1.2a2.65 2.65 0 0 1-3.58 2.33m-50.33-4.94c-.75-.3-.87-.65-.93-2.65l-.05-1.7-1.18-.02a7 7 0 0 1-1.25-.09c-.03-.03.86-.98 1.98-2.1l2.03-2.02 2 2.02a20 20 0 0 1 1.91 2.1c-.04.03-.58.08-1.21.09l-1.14.02-.04 1.74c-.05 1.75-.05 1.75-.28 2.06-.43.56-1.23.8-1.84.55m43.88-1.5a2.64 2.64 0 0 1-.32-4.93c2.36-1.14 4.76 1.61 3.35 3.84a2.7 2.7 0 0 1-3.03 1.09" style="fill:#f9f9f9"/></g></g></svg></svg><style>@media (prefers-color-scheme:light){:root{filter:none}}@media (prefers-color-scheme:dark){:root{filter:none}}</style></svg>